# xmcd
#
# Track frame offsets:
# 150
# 13917
# 25572
# 46745
# 60338
# 75392
# 88146
# 100026
# 116713
# 124911
# 138826
# 152642
# 167427
# 186754
#
# Disc length: 2621 seconds
#
#
# Revision: 0
# Processed by: cddbd v1.5.2PL0 Copyright (c) Steve Scherf et al.
# Submitted via: FreeRIP 2.96 
#
DISCID=a00a3b0e
DTITLE=Gerardo Ortiz - Harpa Paraguaya
DYEAR=2002
DGENRE=Country
TTITLE0=Oda Pasional
TTITLE1=Pajaro Choguy
TTITLE2=Cascada
TTITLE3=Ñesu Jhãme
TTITLE4=Che Rõga
TTITLE5=Cuando La Tarde se Vã
TTITLE6=Contigo
TTITLE7=Historia de Un Amor
TTITLE8=Colonia Paraguaya
TTITLE9=Tupa Sy Del Campo
TTITLE10=Bien Venido Hermano Extranjero
TTITLE11=Mava Yquerepa Reime
TTITLE12=La Paloma
TTITLE13=Despedida
EXTD=
EXTT0=
EXTT1=
EXTT2=
EXTT3=
EXTT4=
EXTT5=
EXTT6=
EXTT7=
EXTT8=
EXTT9=
EXTT10=
EXTT11=
EXTT12=
EXTT13=
PLAYORDER=
